HIERARCHY
ROOT Hips
{
	OFFSET -3.958830 18.904000 13.208200
	CHANNELS 6 Xposition Yposition Zposition Zrotation Yrotation Xrotation 
	JOINT LHipJoint
	{
		OFFSET 0.000000 0.000000 0.000000
		CHANNELS 3 Zrotation Yrotation Xrotation
		JOINT LeftUpLeg
		{
			OFFSET 1.800000 -1.400000 0.085000
			CHANNELS 3 Zrotation Yrotation Xrotation
			JOINT LeftLeg
			{
				OFFSET 2.215000 -6.000000 0.000000
				CHANNELS 3 Zrotation Yrotation Xrotation
				JOINT LeftFoot
				{
					OFFSET 2.500000 -6.900000 0.000000
					CHANNELS 3 Zrotation Yrotation Xrotation
					JOINT LeftToeBase
					{
						OFFSET 0.200000 -0.500000 1.950000
						CHANNELS 3 Zrotation Yrotation Xrotation
						End Site
						{
							OFFSET 0.000000 0.000000 0.000000
						}
					}
				}
			}
		}
	}
	JOINT RHipJoint
	{
		OFFSET 0.000000 0.000000 0.000000
		CHANNELS 3 Zrotation Yrotation Xrotation
		JOINT RightUpLeg
		{
			OFFSET -1.800000 -1.400000 0.085000
			CHANNELS 3 Zrotation Yrotation Xrotation
			JOINT RightLeg
			{
				OFFSET -2.215000 -6.000000 0.000000
				CHANNELS 3 Zrotation Yrotation Xrotation
				JOINT RightFoot
				{
					OFFSET -2.500000 -6.900000 0.000000
					CHANNELS 3 Zrotation Yrotation Xrotation
					JOINT RightToeBase
					{
						OFFSET -0.200000 -0.500000 1.950000
						CHANNELS 3 Zrotation Yrotation Xrotation
						End Site
						{
							OFFSET 0.000000 0.000000 0.000000
						}
					}
				}
			}
		}
	}
	JOINT LowerBack
	{
		OFFSET 0.000000 0.000000 0.000000
		CHANNELS 3 Zrotation Yrotation Xrotation
		JOINT Spine
		{
			OFFSET -0.087000 1.940000 -0.288900
			CHANNELS 3 Zrotation Yrotation Xrotation
			JOINT Spine1
			{
				OFFSET 0.000000 1.950000 0.060000
				CHANNELS 3 Zrotation Yrotation Xrotation
				JOINT Neck
				{
					OFFSET 0.000000 0.000000 0.000000
					CHANNELS 3 Zrotation Yrotation Xrotation
					JOINT Neck1
					{
						OFFSET 0.000000 1.600000 0.340000
						CHANNELS 3 Zrotation Yrotation Xrotation
						JOINT Head
						{
							OFFSET 0.000000 1.667000 -0.240000
							CHANNELS 3 Zrotation Yrotation Xrotation
							End Site
							{
								OFFSET 0.000000 0.000000 0.000000
							}
						}
					}
				}
				JOINT LeftShoulder
				{
					OFFSET 0.000000 0.000000 0.000000
					CHANNELS 3 Zrotation Yrotation Xrotation
					JOINT LeftArm
					{
						OFFSET 2.700000 1.550000 -0.730000
						CHANNELS 3 Zrotation Yrotation Xrotation
						JOINT LeftForeArm
						{
							OFFSET 5.450000 0.000000 0.000000
							CHANNELS 3 Zrotation Yrotation Xrotation
							JOINT LeftHand
							{
								OFFSET 3.450000 0.000000 0.000000
								CHANNELS 3 Zrotation Yrotation Xrotation
								JOINT LeftHandIndex1
								{
									OFFSET 0.750000 0.000000 0.000000
									CHANNELS 3 Zrotation Yrotation Xrotation
									End Site
									{
										OFFSET 0.000000 0.000000 0.000000
									}
								}
							}
						}
					}
				}
				JOINT RightShoulder
				{
					OFFSET 0.000000 0.000000 0.000000
					CHANNELS 3 Zrotation Yrotation Xrotation
					JOINT RightArm
					{
						OFFSET -2.700000 1.550000 -0.730000
						CHANNELS 3 Zrotation Yrotation Xrotation
						JOINT RightForeArm
						{
							OFFSET -5.450000 0.000000 0.000000
							CHANNELS 3 Zrotation Yrotation Xrotation
							JOINT RightHand
							{
								OFFSET -3.450000 0.000000 0.000000
								CHANNELS 3 Zrotation Yrotation Xrotation
								JOINT RightHandIndex1
								{
									OFFSET -0.750000 0.000000 0.000000
									CHANNELS 3 Zrotation Yrotation Xrotation
									End Site
									{
										OFFSET 0.000000 0.000000 0.000000
									}
								}
							}
						}
					}
				}
			}
		}
	}
}
MOTION
Frames: 8
Frame Time: 0.016667
-3.225870 16.620940 -1.009220 -27.268743 -58.844531 1.474550 -15.196106 12.234304 4.478957 12.723179 -1.712287 -33.378401 -17.947687 15.068333 34.930865 0.774097 7.806189 1.517144 0.820650 0.762960 0.739700 18.161624 -10.406842 3.076403 -9.672496 12.423990 8.028804 15.164186 -22.675325 64.043391 -2.692467 -11.645251 0.560515 0.092590 -0.382970 0.223670 -4.077226 -1.291828 -8.447194 14.007615 -2.258725 37.586138 -17.068610 3.458414 -9.846868 8.632539 -11.280983 -10.632782 -25.921072 25.807259 48.087364 6.333440 15.482310 -18.637900 -7.994915 18.771184 -4.400814 -64.852149 36.152798 -22.797137 -2.688982 15.770716 -0.155900 -3.639165 2.266547 0.749630 -0.516340 0.754350 0.277980 -10.002291 -3.072144 8.846599 -12.455001 -15.398547 2.375670 -6.042226 6.451536 0.572350 2.795661 -1.474991 0.246100 0.003810 -0.534820 0.013320 
-3.256280 16.583240 -0.984800 -28.519253 -61.020479 3.315278 -15.206776 11.846999 4.818540 15.136645 -1.502330 -34.631272 -20.252975 16.649343 35.767345 0.913333 8.458622 1.306280 0.837810 0.810490 0.726530 18.182045 -10.583944 2.850290 -11.015512 12.019350 7.305885 12.422789 -21.579202 65.405838 -2.652652 -11.599539 0.589405 0.118610 -0.371090 0.224390 -4.412074 -0.635061 -8.516157 15.459641 -1.549241 35.764987 -18.287248 4.270705 -8.776410 8.082935 -10.632210 -9.536471 -23.886422 24.986934 48.946682 6.042160 15.722550 -18.969260 -9.686674 19.227759 -5.253628 -61.884111 35.935020 -21.640570 -2.607637 12.960953 -0.534732 -3.578138 2.280099 0.717790 -0.492880 0.752650 0.308820 -7.938853 -5.382252 9.229426 -7.858459 -19.408991 1.740878 -4.770514 6.169809 0.444913 2.804949 -1.421614 0.256380 0.007410 -0.558290 0.030820 
-3.336970 16.577090 -0.990140 -31.249129 -65.997369 7.151737 -15.493131 12.219181 5.256556 18.894611 -0.137656 -34.487539 -24.094958 18.045194 33.148622 1.115917 8.879885 1.175316 0.746870 0.664730 0.696390 17.939947 -10.191682 2.399655 -11.435442 11.325773 5.742705 6.524041 -18.239203 68.866267 -2.544865 -11.330119 0.646183 -0.007210 -0.386610 0.214180 -3.534798 -2.249465 -8.641656 10.763928 1.096235 37.636332 -12.869292 6.218945 -16.671940 7.500828 -10.176455 -9.920303 -26.702743 26.502824 49.940689 7.730590 15.428950 -15.540590 -5.388109 25.266018 -5.134813 -59.408238 41.474290 -21.796848 -4.580765 10.162232 -1.336139 -3.512796 2.211066 0.724530 -0.536430 0.736780 0.263470 -9.876435 -9.252779 9.723713 0.665210 -23.801680 -1.191161 -5.200582 13.825224 0.691190 2.926936 -1.478553 0.271350 -0.056810 -0.533060 0.033630 
-3.317080 16.631330 -1.003350 -32.650019 -68.251600 10.108446 -15.601835 12.539639 5.378206 19.408669 -0.168699 -33.968909 -25.090590 16.834507 29.357511 1.046883 8.317378 1.298921 0.818370 0.729580 0.738060 17.804731 -10.211213 2.153548 -11.214961 10.375492 3.335999 1.619772 -14.554022 69.973349 -2.453644 -10.884476 0.717796 0.000430 -0.483850 0.258460 -3.219556 -2.997664 -8.543569 9.227403 2.000559 38.101288 -10.466892 6.584395 -21.954119 7.427655 -9.544885 -9.142878 -28.319733 28.331752 52.098094 7.511890 15.898260 -14.526040 -4.320431 27.985604 -5.749605 -54.635616 40.372166 -17.300931 -0.737692 16.210390 0.232916 -3.481146 2.351521 0.735760 -0.592300 0.793980 0.265110 -9.904972 -12.500609 8.923044 7.113882 -24.650720 -3.787276 -0.081568 16.780817 0.957294 2.854100 -1.558087 0.347510 -0.160550 -0.574960 0.037490 
-3.199820 16.674420 -1.040750 -29.552125 -66.002858 8.245304 -15.500811 12.848383 5.264075 16.423432 -2.607247 -34.239844 -22.833223 14.116291 27.373579 0.794675 7.271852 1.634091 0.817680 0.713870 0.758530 17.839747 -10.396462 2.038797 -11.793989 7.993904 1.465968 -0.409425 -13.687366 69.132934 -2.377123 -10.653524 0.763121 -0.000800 -0.502260 0.272220 -3.095421 -3.367612 -8.347510 8.998506 0.425003 37.364931 -9.481092 4.878530 -17.935115 7.793460 -8.900782 -10.161737 -28.617699 29.205875 52.230308 4.755380 17.526150 -14.141330 -7.642926 23.743615 -4.097538 -54.821075 34.925065 -17.737612 -1.996356 12.397392 -0.467362 -3.431816 2.551621 0.747150 -0.576350 0.789450 0.243460 -6.990813 -11.767276 8.119129 17.039208 -26.666439 -7.176009 0.177190 14.740420 0.457896 2.897601 -1.282369 0.340400 -0.180890 -0.559150 0.006510 
-3.016540 16.767720 -1.145230 -29.975081 -65.663832 9.496016 -15.386607 13.199767 4.963223 13.551693 -3.899263 -33.794270 -17.775329 10.646430 24.260721 0.419083 5.750436 2.171517 0.803700 0.679030 0.767900 17.886735 -10.719385 2.050313 -9.508216 5.990977 -2.052940 -5.343392 -10.192561 69.555215 -2.283121 -10.306031 0.856373 0.011730 -0.468550 0.284010 -3.258549 -3.443806 -8.033207 9.854402 -1.515004 37.055223 -8.794211 2.854431 -14.041701 6.890016 -8.698160 -9.871536 -29.565322 30.006588 50.125348 1.692440 18.933010 -15.235800 -12.555496 19.411899 -3.380216 -53.589738 30.241323 -17.911075 -2.901924 3.188986 -1.307795 -3.332563 2.699993 0.748570 -0.535290 0.758550 0.231780 -0.541098 -10.639452 6.417255 27.898865 -26.692031 -10.339773 -6.638295 12.822069 -0.072792 3.004359 -1.107040 0.301930 -0.151610 -0.525870 -0.019490 
-2.803700 16.882280 -1.285220 -32.049896 -66.322249 12.126614 -15.435766 13.689210 4.683574 11.902903 -3.691191 -33.079922 -13.488009 7.936487 19.605583 0.210676 4.321000 2.699049 0.789760 0.684800 0.752770 17.807806 -10.617045 2.184248 -5.926573 5.073739 -5.356376 -8.815190 -7.088384 69.197693 -2.227884 -9.928142 0.981725 0.008980 -0.479090 0.251220 -3.001687 -4.307338 -7.888507 8.782845 -1.847755 39.521837 -5.635990 2.766037 -15.058444 6.382702 -8.375349 -9.524603 -30.968230 29.992099 49.425910 0.282220 18.512400 -16.769990 -13.340400 18.631725 -3.271572 -51.817471 25.523795 -16.305806 -1.141242 -1.242819 -1.157220 -3.234963 2.767650 0.751080 -0.561020 0.773340 0.246690 1.845625 -10.478897 5.206769 35.519850 -24.676514 -12.871904 -5.636907 12.420088 -0.229095 3.030510 -1.007212 0.293430 -0.118630 -0.540610 -0.002610 
-2.598800 16.987280 -1.413400 -34.251840 -67.601766 14.166848 -15.434616 14.015038 4.356405 10.727251 -2.995599 -31.269125 -9.781428 6.112935 15.387523 0.033505 3.345883 3.067956 0.772210 0.660570 0.781420 17.776704 -10.609183 2.368741 -2.882000 4.772189 -7.158074 -11.376847 -4.388124 67.130968 -2.130162 -9.473127 1.110266 0.009120 -0.487060 0.255670 -2.959732 -4.642320 -7.776074 8.563879 -1.491464 41.241859 -3.913159 3.255401 -12.932231 5.615240 -7.668510 -9.427141 -29.703274 29.083395 49.771506 -2.578310 19.307930 -18.578190 -16.613652 14.636790 -3.013890 -46.813382 19.736893 -13.265801 -0.412433 -3.889903 -1.075525 -3.206754 2.842748 0.751830 -0.537140 0.767350 0.218710 6.576397 -7.675599 4.539101 41.423778 -22.314371 -14.071016 -1.228885 8.695469 -0.395282 3.033840 -0.902350 0.272600 -0.111700 -0.524580 -0.033670 
